<svg width="44" height="44" viewBox="0 0 44 44" fill="none" xmlns="http://www.w3.org/2000/svg">
<path d="M34.8327 7.33301H9.16602C7.70732 7.33301 6.30838 7.91247 5.27693 8.94392C4.24548 9.97537 3.66602 11.3743 3.66602 12.833V31.1663C3.66602 32.625 4.24548 34.024 5.27693 35.0554C6.30838 36.0869 7.70732 36.6663 9.16602 36.6663H34.8327C36.2914 36.6663 37.6903 36.0869 38.7218 35.0554C39.7532 34.024 40.3327 32.625 40.3327 31.1663V12.833C40.3327 11.3743 39.7532 9.97537 38.7218 8.94392C37.6903 7.91247 36.2914 7.33301 34.8327 7.33301ZM34.081 10.9997L23.301 21.7797C23.1306 21.9515 22.9278 22.0879 22.7044 22.181C22.481 22.2741 22.2414 22.322 21.9993 22.322C21.7573 22.322 21.5177 22.2741 21.2943 22.181C21.0709 22.0879 20.8681 21.9515 20.6977 21.7797L9.91768 10.9997H34.081ZM36.666 31.1663C36.666 31.6526 36.4729 32.1189 36.129 32.4627C35.7852 32.8065 35.3189 32.9997 34.8327 32.9997H9.16602C8.67979 32.9997 8.21347 32.8065 7.86965 32.4627C7.52584 32.1189 7.33268 31.6526 7.33268 31.1663V13.5847L18.1127 24.3647C19.1439 25.3946 20.5418 25.9732 21.9993 25.9732C23.4569 25.9732 24.8548 25.3946 25.886 24.3647L36.666 13.5847V31.1663Z" fill="#F7931E"/>
</svg>
