<svg width="44" height="44" viewBox="0 0 44 44" fill="none" xmlns="http://www.w3.org/2000/svg">
<path d="M35.6395 23.8332C35.2361 23.8332 34.8145 23.7048 34.4111 23.6132C33.5943 23.4332 32.7917 23.1942 32.0095 22.8982C31.1589 22.5888 30.2241 22.6048 29.3847 22.9433C28.5453 23.2817 27.8608 23.9187 27.4628 24.7315L27.0595 25.5565C25.2738 24.5632 23.6329 23.3294 22.1828 21.8898C20.7432 20.4397 19.5095 18.7988 18.5161 17.0132L19.2861 16.4998C20.099 16.1019 20.7359 15.4173 21.0743 14.5779C21.4128 13.7386 21.4289 12.8037 21.1195 11.9532C20.8284 11.1693 20.5895 10.367 20.4045 9.55151C20.3128 9.14817 20.2395 8.72651 20.1845 8.30484C19.9618 7.01348 19.2854 5.84403 18.2771 5.00711C17.2688 4.17019 15.9947 3.72079 14.6845 3.73984H9.18445C8.39434 3.73242 7.61191 3.89533 6.89042 4.21748C6.16893 4.53963 5.52532 5.01345 5.00341 5.60669C4.4815 6.19993 4.09353 6.89866 3.86593 7.65532C3.63833 8.41197 3.57643 9.20878 3.68445 9.99151C4.66114 17.672 8.16884 24.8083 13.6535 30.273C19.1381 35.7377 26.2871 39.2194 33.9711 40.1682H34.6678C36.0197 40.1702 37.325 39.6741 38.3345 38.7748C38.9145 38.2561 39.3778 37.6202 39.6938 36.9091C40.0098 36.198 40.1714 35.428 40.1678 34.6498V29.1498C40.1453 27.8764 39.6816 26.6502 38.8557 25.6806C38.0299 24.7109 36.8931 24.058 35.6395 23.8332ZM36.5561 34.8332C36.5558 35.0935 36.5 35.3507 36.3926 35.5878C36.2851 35.8249 36.1283 36.0364 35.9328 36.2082C35.7279 36.385 35.4884 36.5172 35.2295 36.5961C34.9706 36.675 34.6981 36.699 34.4295 36.6665C27.5634 35.7861 21.1859 32.6451 16.3028 27.7387C11.4196 22.8323 8.30887 16.44 7.46112 9.56984C7.43194 9.30129 7.45751 9.02961 7.53629 8.77122C7.61507 8.51283 7.74541 8.2731 7.91945 8.06651C8.09125 7.87095 8.30273 7.71421 8.53981 7.60674C8.7769 7.49926 9.03415 7.4435 9.29445 7.44317H14.7945C15.2208 7.43369 15.6371 7.57312 15.9717 7.83747C16.3063 8.10182 16.5383 8.47455 16.6278 8.89151C16.7011 9.39262 16.7928 9.88762 16.9028 10.3765C17.1146 11.3429 17.3964 12.2927 17.7461 13.2182L15.1795 14.4098C14.96 14.5105 14.7626 14.6536 14.5986 14.8308C14.4346 15.008 14.3072 15.2158 14.2237 15.4424C14.1402 15.6689 14.1023 15.9097 14.1122 16.151C14.122 16.3922 14.1794 16.6292 14.2811 16.8482C16.9197 22.4999 21.4627 27.043 27.1145 29.6815C27.5608 29.8649 28.0614 29.8649 28.5078 29.6815C28.7364 29.5997 28.9465 29.4733 29.1259 29.3097C29.3053 29.146 29.4504 28.9484 29.5528 28.7282L30.6895 26.1615C31.6372 26.5004 32.6045 26.7821 33.5861 27.0048C34.075 27.1148 34.57 27.2065 35.0711 27.2798C35.4881 27.3693 35.8608 27.6013 36.1252 27.9359C36.3895 28.2705 36.5289 28.6868 36.5195 29.1132L36.5561 34.8332Z" fill="#F7931E"/>
</svg>
