<svg width="35" height="35" viewBox="0 0 35 35" fill="none" xmlns="http://www.w3.org/2000/svg">
<rect width="35" height="35" rx="17.5" transform="matrix(-1 0 0 1 35 0)" fill="black" fill-opacity="0.13"/>
<path d="M14.178 14.216C14.242 13.224 14.6207 12.4507 15.314 11.896C16.018 11.3413 16.914 11.064 18.002 11.064C18.7487 11.064 19.394 11.1973 19.938 11.464C20.482 11.7307 20.8927 12.0933 21.17 12.552C21.4473 13.0107 21.586 13.528 21.586 14.104C21.586 14.7653 21.41 15.3307 21.058 15.8C20.706 16.2693 20.2847 16.584 19.794 16.744V16.808C20.4233 17 20.914 17.352 21.266 17.864C21.618 18.3653 21.794 19.0107 21.794 19.8C21.794 20.4293 21.65 20.9893 21.362 21.48C21.074 21.9707 20.6473 22.36 20.082 22.648C19.5167 22.9253 18.8393 23.064 18.05 23.064C16.898 23.064 15.9487 22.7707 15.202 22.184C14.466 21.5867 14.0713 20.7333 14.018 19.624H15.778C15.8207 20.1893 16.0393 20.6533 16.434 21.016C16.8287 21.368 17.362 21.544 18.034 21.544C18.6847 21.544 19.186 21.368 19.538 21.016C19.89 20.6533 20.066 20.1893 20.066 19.624C20.066 18.8773 19.826 18.3493 19.346 18.04C18.8767 17.72 18.1513 17.56 17.17 17.56H16.754V16.056H17.186C18.05 16.0453 18.706 15.9013 19.154 15.624C19.6127 15.3467 19.842 14.9093 19.842 14.312C19.842 13.8 19.6767 13.3947 19.346 13.096C19.0153 12.7867 18.546 12.632 17.938 12.632C17.3407 12.632 16.8767 12.7867 16.546 13.096C16.2153 13.3947 16.018 13.768 15.954 14.216H14.178Z" fill="black" fill-opacity="0.51"/>
</svg>
