<svg width="35" height="35" viewBox="0 0 35 35" fill="none" xmlns="http://www.w3.org/2000/svg">
<rect width="35" height="35" rx="17.5" transform="matrix(-1 0 0 1 35 0)" fill="black" fill-opacity="0.13"/>
<path d="M14.968 20.52C15.992 19.6347 16.7973 18.9093 17.384 18.344C17.9813 17.768 18.4773 17.1707 18.872 16.552C19.2667 15.9333 19.464 15.3147 19.464 14.696C19.464 14.056 19.3093 13.5547 19 13.192C18.7013 12.8293 18.2267 12.648 17.576 12.648C16.9467 12.648 16.456 12.8507 16.104 13.256C15.7627 13.6507 15.5813 14.184 15.56 14.856H13.8C13.832 13.64 14.1947 12.712 14.888 12.072C15.592 11.4213 16.4827 11.096 17.56 11.096C18.7227 11.096 19.6293 11.416 20.28 12.056C20.9413 12.696 21.272 13.5493 21.272 14.616C21.272 15.384 21.0747 16.1253 20.68 16.84C20.296 17.544 19.832 18.1787 19.288 18.744C18.7547 19.2987 18.072 19.944 17.24 20.68L16.52 21.32H21.592V22.84H13.816V21.512L14.968 20.52Z" fill="black" fill-opacity="0.51"/>
</svg>
