<svg width="24" height="24" viewBox="0 0 24 24" fill="none" xmlns="http://www.w3.org/2000/svg">
<path d="M7.0001 11H14.5901L11.2901 7.71C11.1018 7.5217 10.996 7.2663 10.996 7C10.996 6.7337 11.1018 6.47831 11.2901 6.29C11.4784 6.1017 11.7338 5.99591 12.0001 5.99591C12.2664 5.99591 12.5218 6.1017 12.7101 6.29L17.7101 11.29C17.8011 11.3851 17.8725 11.4973 17.9201 11.62C18.0201 11.8635 18.0201 12.1365 17.9201 12.38C17.8725 12.5028 17.8011 12.6149 17.7101 12.71L12.7101 17.71C12.6171 17.8037 12.5065 17.8781 12.3847 17.9289C12.2628 17.9797 12.1321 18.0058 12.0001 18.0058C11.8681 18.0058 11.7374 17.9797 11.6155 17.9289C11.4937 17.8781 11.3831 17.8037 11.2901 17.71C11.1964 17.617 11.122 17.5064 11.0712 17.3846C11.0204 17.2627 10.9943 17.132 10.9943 17C10.9943 16.868 11.0204 16.7373 11.0712 16.6154C11.122 16.4936 11.1964 16.383 11.2901 16.29L14.5901 13H7.0001C6.73489 13 6.48053 12.8946 6.293 12.7071C6.10546 12.5196 6.0001 12.2652 6.0001 12C6.0001 11.7348 6.10546 11.4804 6.293 11.2929C6.48053 11.1054 6.73489 11 7.0001 11Z" fill="black" fill-opacity="0.21"/>
</svg>
