<svg width="43" height="43" viewBox="0 0 43 43" fill="none" xmlns="http://www.w3.org/2000/svg">
<path d="M38.3929 0H4.60714C2.06362 0 0 2.06362 0 4.60714V38.3929C0 40.9364 2.06362 43 4.60714 43H38.3929C40.9364 43 43 40.9364 43 38.3929V4.60714C43 2.06362 40.9364 0 38.3929 0ZM33.6993 15.242C33.7185 15.5107 33.7185 15.7891 33.7185 16.0578C33.7185 24.3795 27.3837 33.9681 15.8083 33.9681C12.2377 33.9681 8.92634 32.9315 6.14286 31.1462C6.65156 31.2038 7.14107 31.223 7.65938 31.223C10.606 31.223 13.3127 30.2248 15.4723 28.5355C12.708 28.4779 10.3853 26.6638 9.58862 24.1683C10.558 24.3123 11.4315 24.3123 12.4297 24.0531C9.55022 23.4676 7.39062 20.9337 7.39062 17.8719V17.7951C8.22567 18.2654 9.20469 18.5533 10.2317 18.5917C9.36827 18.0174 8.66045 17.2383 8.17141 16.3238C7.68237 15.4094 7.42732 14.3881 7.42902 13.3511C7.42902 12.1801 7.73616 11.1051 8.28326 10.1741C11.3835 13.9942 16.0386 16.4897 21.26 16.7585C20.3674 12.4873 23.5636 9.02232 27.4029 9.02232C29.217 9.02232 30.8487 9.78058 32.0004 11.0092C33.421 10.7404 34.7839 10.2125 35.9933 9.49263C35.523 10.9516 34.5344 12.1801 33.229 12.9576C34.496 12.8232 35.7246 12.4681 36.8571 11.9786C36.0029 13.2359 34.9279 14.3493 33.6993 15.242Z" fill="#9F9F9F"/>
</svg>
