<svg width="43" height="43" viewBox="0 0 43 43" fill="none" xmlns="http://www.w3.org/2000/svg">
<path d="M38.2222 0C39.4894 0 40.7046 0.503371 41.6006 1.39938C42.4966 2.29539 43 3.51063 43 4.77778V38.2222C43 39.4894 42.4966 40.7046 41.6006 41.6006C40.7046 42.4966 39.4894 43 38.2222 43H4.77778C3.51063 43 2.29539 42.4966 1.39938 41.6006C0.503371 40.7046 0 39.4894 0 38.2222V4.77778C0 3.51063 0.503371 2.29539 1.39938 1.39938C2.29539 0.503371 3.51063 0 4.77778 0H38.2222ZM37.0278 37.0278V24.3667C37.0278 22.3012 36.2073 20.3204 34.7468 18.8599C33.2863 17.3994 31.3054 16.5789 29.24 16.5789C27.2094 16.5789 24.8444 17.8211 23.6978 19.6844V17.0328H17.0328V37.0278H23.6978V25.2506C23.6978 23.4111 25.1789 21.9061 27.0183 21.9061C27.9053 21.9061 28.756 22.2585 29.3832 22.8857C30.0104 23.5129 30.3628 24.3636 30.3628 25.2506V37.0278H37.0278ZM9.26889 13.2822C10.3333 13.2822 11.3541 12.8594 12.1067 12.1067C12.8594 11.3541 13.2822 10.3333 13.2822 9.26889C13.2822 7.04722 11.4906 5.23167 9.26889 5.23167C8.19815 5.23167 7.17127 5.65702 6.41414 6.41414C5.65702 7.17127 5.23167 8.19815 5.23167 9.26889C5.23167 11.4906 7.04722 13.2822 9.26889 13.2822ZM12.5894 37.0278V17.0328H5.97222V37.0278H12.5894Z" fill="#9F9F9F"/>
</svg>
