<svg width="25" height="31" viewBox="0 0 25 31" fill="none" xmlns="http://www.w3.org/2000/svg">
<path d="M23.4375 7.75H18.75V6.2C18.75 4.55566 18.0915 2.97866 16.9194 1.81594C15.7473 0.653212 14.1576 0 12.5 0C10.8424 0 9.25268 0.653212 8.08058 1.81594C6.90848 2.97866 6.25 4.55566 6.25 6.2V7.75H1.5625C1.1481 7.75 0.750672 7.9133 0.457646 8.20398C0.16462 8.49467 0 8.88891 0 9.3V26.35C0 27.5833 0.49386 28.766 1.37294 29.638C2.25201 30.5101 3.4443 31 4.6875 31H20.3125C21.5557 31 22.748 30.5101 23.6271 29.638C24.5061 28.766 25 27.5833 25 26.35V9.3C25 8.88891 24.8354 8.49467 24.5424 8.20398C24.2493 7.9133 23.8519 7.75 23.4375 7.75ZM9.375 6.2C9.375 5.37783 9.70424 4.58933 10.2903 4.00797C10.8763 3.42661 11.6712 3.1 12.5 3.1C13.3288 3.1 14.1237 3.42661 14.7097 4.00797C15.2958 4.58933 15.625 5.37783 15.625 6.2V7.75H9.375V6.2ZM21.875 26.35C21.875 26.7611 21.7104 27.1553 21.4174 27.446C21.1243 27.7367 20.7269 27.9 20.3125 27.9H4.6875C4.2731 27.9 3.87567 27.7367 3.58265 27.446C3.28962 27.1553 3.125 26.7611 3.125 26.35V10.85H6.25V12.4C6.25 12.8111 6.41462 13.2053 6.70765 13.496C7.00067 13.7867 7.3981 13.95 7.8125 13.95C8.2269 13.95 8.62433 13.7867 8.91735 13.496C9.21038 13.2053 9.375 12.8111 9.375 12.4V10.85H15.625V12.4C15.625 12.8111 15.7896 13.2053 16.0826 13.496C16.3757 13.7867 16.7731 13.95 17.1875 13.95C17.6019 13.95 17.9993 13.7867 18.2924 13.496C18.5854 13.2053 18.75 12.8111 18.75 12.4V10.85H21.875V26.35Z" fill="#3D2016"/>
</svg>
